<?xml version="1.0" standalone="no"?>
<!DOCTYPE svg PUBLIC "-//W3C//DTD SVG 20010904//EN"
 "http://www.w3.org/TR/2001/REC-SVG-20010904/DTD/svg10.dtd">
<svg version="1.0" xmlns="http://www.w3.org/2000/svg"
 width="512.000000pt" height="512.000000pt" viewBox="0 0 512.000000 512.000000"
 preserveAspectRatio="xMidYMid meet">

<g transform="translate(0.000000,512.000000) scale(0.100000,-0.100000)"
fill="#000000" stroke="none">
<path d="M353 5105 c-169 -37 -302 -172 -338 -342 -21 -100 -21 -1286 0 -1386
36 -173 169 -306 342 -342 50 -11 144 -15 353 -15 l285 0 140 -140 c210 -211
219 -211 430 0 l140 140 153 2 154 3 464 1043 c255 574 464 1046 464 1048 0 2
-568 4 -1262 3 -1024 0 -1275 -3 -1325 -14z m1758 -419 c43 -18 73 -51 90 -98
10 -30 10 -44 -1 -80 -11 -36 -60 -90 -324 -351 -338 -335 -603 -587 -614
-585 -4 1 -20 -2 -36 -7 -18 -5 -42 -3 -65 5 -36 12 -91 56 -91 72 0 5 -54
135 -120 289 -66 154 -120 291 -120 305 0 29 16 63 39 82 24 19 98 51 134 57
32 6 87 -11 87 -26 0 -5 6 -9 14 -9 8 0 43 -68 87 -170 40 -93 77 -170 81
-170 5 0 131 120 281 268 322 317 436 424 446 418 4 -3 13 -1 21 5 21 13 53
11 91 -5z"/>
<path d="M2638 4073 l-467 -1048 622 -3 622 -2 140 -140 c211 -211 220 -211
430 0 l140 140 285 0 c209 0 303 4 353 15 173 36 306 169 342 342 21 100 21
1286 0 1386 -36 173 -169 306 -342 342 -56 12 -211 15 -864 15 l-795 0 -466
-1047z m748 571 c26 -10 94 -71 203 -181 l163 -165 97 94 c137 135 261 248
269 246 4 -1 20 2 36 7 61 17 143 -35 166 -105 25 -76 7 -105 -183 -294 l-169
-169 94 -96 c135 -137 248 -261 246 -269 -1 -4 2 -20 7 -35 17 -63 -33 -142
-107 -168 -72 -25 -103 -5 -292 184 l-169 169 -96 -94 c-137 -135 -261 -248
-269 -246 -4 1 -20 -2 -35 -7 -63 -17 -142 33 -168 107 -25 72 -5 103 184 292
l169 169 -94 96 c-135 137 -248 261 -246 269 1 4 -2 20 -7 35 -16 58 28 135
93 163 38 17 63 17 108 -2z"/>
<path d="M1263 2390 c-256 -46 -453 -250 -494 -511 -36 -232 96 -491 306 -601
77 -40 163 -68 207 -68 55 0 18 -17 -49 -23 -398 -35 -778 -363 -882 -762 -27
-100 -44 -248 -35 -298 8 -50 56 -104 102 -117 51 -14 1833 -14 1884 0 46 13
94 67 102 117 9 50 -8 198 -35 298 -104 399 -484 727 -882 762 -67 6 -104 23
-49 23 92 0 251 79 342 170 115 115 174 257 174 420 0 258 -161 482 -405 564
-86 29 -208 40 -286 26z"/>
<path d="M3663 2390 c-256 -46 -453 -250 -494 -511 -36 -232 96 -491 306 -601
77 -40 163 -68 207 -68 55 0 18 -17 -49 -23 -398 -35 -778 -363 -882 -762 -27
-100 -44 -248 -35 -298 8 -50 56 -104 102 -117 51 -14 1833 -14 1884 0 46 13
94 67 102 117 9 50 -8 198 -35 298 -104 399 -484 727 -882 762 -67 6 -104 23
-49 23 92 0 251 79 342 170 115 115 174 257 174 420 0 258 -161 482 -405 564
-86 29 -208 40 -286 26z"/>
</g>
</svg>
