<?xml version="1.0" standalone="no"?>
<!DOCTYPE svg PUBLIC "-//W3C//DTD SVG 20010904//EN"
 "http://www.w3.org/TR/2001/REC-SVG-20010904/DTD/svg10.dtd">
<svg version="1.0" xmlns="http://www.w3.org/2000/svg"
 width="512.000000pt" height="512.000000pt" viewBox="0 0 512.000000 512.000000"
 preserveAspectRatio="xMidYMid meet">

<g transform="translate(0.000000,512.000000) scale(0.100000,-0.100000)"
fill="#000000" stroke="none">
<path d="M2447 5100 c-94 -30 -178 -105 -218 -195 -81 -183 -5 -392 177 -481
53 -26 69 -29 154 -29 85 0 101 3 154 29 255 125 283 473 51 631 -95 64 -208
80 -318 45z"/>
<path d="M2040 4224 c-45 -20 -86 -59 -113 -109 -21 -39 -22 -52 -25 -457 l-3
-418 661 0 661 0 -3 418 c-3 405 -4 418 -25 457 -49 91 -112 125 -233 125 -62
0 -90 -5 -121 -21 -151 -77 -407 -77 -558 0 -50 26 -186 29 -241 5z"/>
<path d="M2499 2894 c-21 -23 -24 -36 -27 -135 l-4 -109 -903 0 c-634 0 -911
-3 -934 -11 -53 -18 -61 -49 -61 -219 0 -192 11 -220 91 -220 18 0 39 10 54
25 24 23 25 31 25 135 l0 110 864 0 864 0 4 -109 c3 -99 6 -112 27 -135 18
-19 35 -26 61 -26 26 0 43 7 61 26 21 23 24 36 27 135 l4 109 864 0 864 0 0
-110 c0 -104 1 -112 25 -135 15 -15 36 -25 54 -25 80 0 91 28 91 220 0 170 -8
201 -61 219 -23 8 -300 11 -934 11 l-903 0 -4 109 c-3 99 -6 112 -27 135 -18
19 -35 26 -61 26 -26 0 -43 -7 -61 -26z"/>
<path d="M545 1867 c-56 -19 -114 -57 -157 -105 -101 -111 -123 -263 -59 -398
131 -276 518 -280 653 -6 30 61 33 75 33 162 0 82 -4 103 -27 152 -34 73 -103
142 -176 176 -45 21 -74 27 -142 29 -50 2 -102 -3 -125 -10z"/>
<path d="M2460 1871 c-163 -53 -262 -188 -262 -356 1 -95 30 -170 93 -240 149
-162 389 -162 539 2 62 68 91 143 92 238 0 149 -71 263 -206 332 -42 22 -67
27 -141 30 -49 1 -101 -1 -115 -6z"/>
<path d="M4328 1857 c-146 -62 -228 -186 -228 -343 0 -165 117 -310 283 -351
58 -14 78 -14 134 -4 126 23 222 95 274 205 35 74 45 146 29 222 -16 77 -42
126 -97 185 -68 73 -136 103 -247 106 -78 3 -99 0 -148 -20z"/>
<path d="M157 996 c-58 -21 -103 -61 -131 -118 l-26 -52 0 -413 0 -413 655 0
655 0 0 418 c0 385 -2 420 -19 457 -58 126 -218 172 -362 106 -169 -78 -357
-79 -541 -2 -81 35 -164 40 -231 17z"/>
<path d="M2053 994 c-23 -9 -60 -34 -82 -56 -69 -68 -71 -85 -71 -540 l0 -398
660 0 660 0 0 398 c0 455 -2 472 -70 540 -74 74 -214 96 -308 48 -90 -46 -159
-60 -282 -60 -123 0 -192 14 -282 60 -56 28 -157 32 -225 8z"/>
<path d="M3961 996 c-47 -17 -108 -71 -131 -116 -19 -37 -20 -60 -20 -460 l0
-420 655 0 656 0 -3 423 -3 424 -30 49 c-46 73 -106 106 -203 112 -64 4 -85 1
-118 -16 -172 -87 -399 -92 -573 -11 -51 23 -76 29 -130 28 -36 0 -81 -6 -100
-13z"/>
</g>
</svg>
