<svg width="64" height="64" viewBox="0 0 64 64" xmlns="http://www.w3.org/2000/svg">
    <g fill="none" fill-rule="evenodd">
        <path d="M0 0h64v64H0z"/>
        <path d="M18.472 10.241c1.902-.351 3.851-.339 5.727.173 1.801.49 3.442 1.383 4.87 2.582 2.783 2.338 4.365 5.914 4.382 9.537v.002l-.006.351a12.714 12.714 0 0 1-4.878 9.57 19.764 19.764 0 0 1 4.05 2.132c2.78 1.912 5.151 4.427 6.753 7.417a21.436 21.436 0 0 1 2.545 10.063c.003 1.152-.983 2.108-2.124 2.101H2.095c-1.153 0-2.098-.985-2.095-2.132.004-1.51.172-3.03.49-4.506.72-3.347 2.304-6.46 4.494-9.077C7.178 35.83 10 33.869 13.14 32.56l.226-.092c-.373-.284-.73-.59-1.07-.918-1.351-1.309-2.339-2.88-3.024-4.625-1.334-3.397-.986-7.427.816-10.587 1.756-3.081 4.878-5.45 8.384-6.098zm4.772 25.162a19.33 19.33 0 0 0-4.453-.017 19.03 19.03 0 0 0-4.272 1.146 19.153 19.153 0 0 0-3.813 2.229 18.909 18.909 0 0 0-3.013 3.027l-.065.085-.163.221a18.914 18.914 0 0 0-1.972 3.483l-.034.087a18.84 18.84 0 0 0-.293.793 19.316 19.316 0 0 0-.806 3.304l-.02.175h33.24l-.006-.052a19.184 19.184 0 0 0-1.144-4.29 19.245 19.245 0 0 0-2.22-3.823 18.92 18.92 0 0 0-3.02-3.024l-.084-.066c-.074-.055-.147-.11-.221-.163a18.898 18.898 0 0 0-3.47-1.978l-.089-.035a18.636 18.636 0 0 0-.79-.293 19.173 19.173 0 0 0-3.292-.809zm38.632 8.85c1.165 0 2.132.944 2.124 2.043-.008 1.11-.99 2.014-2.155 2.014H51.702c-1.166 0-2.132-.944-2.125-2.043.008-1.11.99-2.013 2.155-2.013zm.003-14.422c1.164 0 2.129.944 2.121 2.043-.008 1.11-.988 2.013-2.151 2.013H44.487c-1.164 0-2.128-.943-2.12-2.042.007-1.11.987-2.014 2.15-2.014zM22.124 14.289a10.79 10.79 0 0 0-2.235-.014c-.723.116-1.43.305-2.113.566-.675.307-1.313.682-1.911 1.122a10.224 10.224 0 0 0-1.51 1.53l-.016.023a10.424 10.424 0 0 0-.98 1.686l-.052.117a9.322 9.322 0 0 0-.126.342c-.188.552-.33 1.115-.428 1.689a10.887 10.887 0 0 0-.014 2.241c.115.726.303 1.435.564 2.121.306.677.68 1.317 1.118 1.916a10.232 10.232 0 0 0 1.549 1.53 10.414 10.414 0 0 0 1.68.984l.118.052c.112.044.225.087.34.126.55.19 1.111.332 1.684.43.743.082 1.49.087 2.234.014.723-.116 1.429-.304 2.113-.566a10.707 10.707 0 0 0 1.912-1.122 10.224 10.224 0 0 0 1.509-1.53l.016-.023a10.439 10.439 0 0 0 .98-1.686l.052-.117c.044-.113.087-.227.126-.342.188-.551.33-1.114.428-1.688.044-.394.067-.789.07-1.186-.003-.35-.02-.699-.054-1.046a10.716 10.716 0 0 0-.566-2.13 10.755 10.755 0 0 0-1.118-1.918 10.219 10.219 0 0 0-1.549-1.53 10.414 10.414 0 0 0-1.68-.983l-.117-.052a9.304 9.304 0 0 0-.34-.126 10.779 10.779 0 0 0-1.684-.43zm39.756 1.57c1.163 0 2.128.944 2.12 2.043-.008 1.11-.988 2.013-2.15 2.013H40.88c-1.163 0-2.127-.943-2.12-2.042.008-1.11.988-2.014 2.151-2.014z" fill="#000000"/>
    </g>
</svg>
