<svg xmlns="http://www.w3.org/2000/svg" width="24" height="23" viewBox="0 0 24 23">
    <g fill="none" fill-rule="evenodd">
        <g fill="#0EC200" fill-rule="nonzero">
            <g>
                <g>
                    <path d="M13.444 19.121V0H11.9C7.935.716 3.98 1.379 0 2.067v18.086c3.916.691 7.881 1.382 11.821 2.099h1.612v-3.13h.011v-.001zm-5.832-3.968c-.493-1.056-.926-2.14-1.296-3.245-.358 1.05-.853 2.038-1.258 3.066-.566 0-1.131-.032-1.697-.054.662-1.3 1.303-2.611 1.988-3.9-.58-1.333-1.222-2.637-1.82-3.959l1.712-.097c.383 1.01.806 2.01 1.125 3.045.358-1.1.849-2.149 1.286-3.195.585-.04 1.171-.076 1.759-.107-.688 1.413-1.382 2.83-2.082 4.251.717 1.433 1.433 2.884 2.15 4.331-.624-.05-1.243-.09-1.867-.136zm6.484-12.674v1.372h2.74v2.022h-2.74v1.11h2.74v2.025h-2.74v1.11h2.74v2.02h-2.74v1.111h2.74v2.006h-2.74v1.175h2.74v1.96h-2.74v1.371h9.464V2.479h-9.464zm7.376 15.926h-3.984v-1.96h3.984v1.96zm0-3.135h-3.984v-2.024h3.984v2.024zm0-3.134h-3.984v-2.02h3.984v2.02zm0-3.134h-3.984v-2.02h3.984v2.02zm0-3.135h-3.984V3.851h3.984v2.016z" transform="translate(-1599.000000, -654.000000) translate(1599.000000, 654.000000) translate(-0.000000, 0.000000)"/>
                </g>
            </g>
        </g>
    </g>
</svg>
