<?xml version="1.0" standalone="no"?>
<!DOCTYPE svg PUBLIC "-//W3C//DTD SVG 20010904//EN"
 "http://www.w3.org/TR/2001/REC-SVG-20010904/DTD/svg10.dtd">
<svg version="1.0" xmlns="http://www.w3.org/2000/svg"
 width="32.000000pt" height="32.000000pt" viewBox="0 0 32.000000 32.000000"
 preserveAspectRatio="xMidYMid meet">

<g transform="translate(0.000000,32.000000) scale(0.100000,-0.100000)"
fill="#000000" stroke="none">
<path d="M0 300 c0 -19 7 -20 90 -20 83 0 90 1 90 20 0 19 -7 20 -90 20 -83 0
-90 -1 -90 -20z"/>
<path d="M200 299 c0 -24 23 -21 28 4 2 10 -3 17 -12 17 -10 0 -16 -9 -16 -21z"/>
<path d="M242 303 c5 -25 28 -28 28 -4 0 12 -6 21 -16 21 -9 0 -14 -7 -12 -17z"/>
<path d="M290 300 c0 -11 7 -20 15 -20 8 0 15 9 15 20 0 11 -7 20 -15 20 -8 0
-15 -9 -15 -20z"/>
<path d="M0 130 l0 -130 45 0 45 0 0 130 0 130 -45 0 -45 0 0 -130z m63 93
c-7 -2 -19 -2 -25 0 -7 3 -2 5 12 5 14 0 19 -2 13 -5z m-3 -33 c0 -5 -7 -10
-15 -10 -8 0 -15 5 -15 10 0 6 7 10 15 10 8 0 15 -4 15 -10z m0 -40 c0 -5 -7
-10 -15 -10 -8 0 -15 5 -15 10 0 6 7 10 15 10 8 0 15 -4 15 -10z"/>
<path d="M110 130 l0 -130 105 0 105 0 0 130 0 130 -105 0 -105 0 0 -130z
m170 60 c28 -53 -5 -110 -64 -110 -37 0 -76 36 -76 69 0 24 29 61 54 70 27 10
73 -6 86 -29z m10 -140 c0 -6 -32 -10 -76 -10 -47 0 -73 4 -69 10 8 13 145 13
145 0z"/>
<path d="M168 175 c-8 -18 -8 -32 0 -49 22 -48 94 -35 100 18 4 29 4 29 -22
13 -34 -23 -36 -22 -36 13 0 38 -26 41 -42 5z"/>
<path d="M230 185 c0 -9 6 -12 15 -9 8 4 12 10 9 15 -8 14 -24 10 -24 -6z"/>
</g>
</svg>
