<?xml version="1.0" standalone="no"?>
<!DOCTYPE svg PUBLIC "-//W3C//DTD SVG 20010904//EN"
 "http://www.w3.org/TR/2001/REC-SVG-20010904/DTD/svg10.dtd">
<svg version="1.0" xmlns="http://www.w3.org/2000/svg"
 width="32" height="32" viewBox="0 0 32 32"
 preserveAspectRatio="xMidYMid meet">

<g transform="translate(0.000000,32.000000) scale(0.100000,-0.100000)"
fill="#000000" stroke="none">
<path d="M130 301 c-18 -34 10 -68 44 -55 21 8 28 32 16 55 -14 25 -46 25 -60
0z"/>
<path d="M12 288 c-18 -18 -14 -46 8 -58 28 -15 65 22 50 50 -12 22 -40 26
-58 8z"/>
<path d="M250 280 c-8 -15 -6 -24 10 -40 16 -16 25 -18 40 -10 22 12 26 40 8
58 -18 18 -46 14 -58 -8z"/>
<path d="M107 223 c-4 -3 -7 -24 -7 -45 l0 -38 61 0 60 0 -3 42 c-4 54 -32 66
-43 19 -8 -39 -22 -40 -30 -1 -6 28 -23 38 -38 23z"/>
<path d="M12 198 c-6 -6 -12 -33 -12 -59 0 -54 18 -79 56 -79 20 0 24 -5 24
-30 0 -25 4 -30 25 -30 24 0 25 3 25 55 0 53 -1 56 -29 61 -27 6 -30 11 -33
48 -2 32 -7 42 -23 44 -11 1 -26 -3 -33 -10z"/>
<path d="M257 203 c-4 -3 -7 -23 -7 -43 0 -34 -3 -38 -30 -44 -29 -5 -30 -7
-30 -61 0 -52 1 -55 25 -55 21 0 25 5 25 30 0 25 4 30 24 30 38 0 56 25 56 79
0 26 -5 52 -12 59 -13 13 -41 16 -51 5z"/>
</g>
</svg>
