<?xml version="1.0" encoding="UTF-8"?>
<svg width="24px" height="24px" viewBox="0 0 24 24" version="1.1" xmlns="http://www.w3.org/2000/svg" xmlns:xlink="http://www.w3.org/1999/xlink">
    <title>noun_PDF_749513</title>
    <g id="Design" stroke="none" stroke-width="1" fill="none" fill-rule="evenodd">
        <g id="MEET-Dashboard" transform="translate(-1248.000000, -754.000000)" fill="#C70202" fill-rule="nonzero">
            <g id="Group-4" transform="translate(146.000000, 743.000000)">
                <g id="noun_PDF_749513-2" transform="translate(1102.000000, 11.000000)">
                    <g id="noun_PDF_749513" transform="translate(3.000000, 0.000000)">
                        <path d="M11.3189861,10.7885694 C10.8226111,10.2351944 10.3323056,9.61690278 9.89081944,9.060625 C9.68261111,8.79779167 9.483375,8.54709722 9.29706944,8.31936111 L9.28334722,8.30273611 C9.55620833,7.52558333 9.71216667,6.88961111 9.747,6.41197222 C9.83540278,5.19518056 9.6995,4.41143056 9.33190278,4.01638889 C9.08358333,3.74906944 8.71070833,3.65591667 8.36,3.773875 C8.10877778,3.85805556 7.768625,4.08368056 7.57413889,4.67954167 C7.28438889,5.56779167 7.42477778,7.14083333 8.24863889,8.44180556 C7.88104167,9.40447222 7.36856944,10.5106944 6.80252778,11.563875 C5.72454167,11.9417639 4.86531944,12.4386667 4.24861111,13.0413889 C3.44295833,13.8277778 3.11547222,14.6083611 3.34980556,15.1825833 C3.49415278,15.5383056 3.82797222,15.7504722 4.24254167,15.7504722 C4.53123611,15.7504722 4.84341667,15.6462361 5.14556944,15.449375 C5.90847222,14.950625 6.90465278,13.2889167 7.43902778,12.3259861 C8.54445833,11.9808194 9.63590278,11.8396389 10.1905972,11.7860694 C10.4415556,11.7617917 10.6906667,11.7425278 10.9305417,11.7290694 C11.9013889,12.7542778 12.6954306,13.2949861 13.4269306,13.4298333 C13.5741806,13.4572778 13.7214306,13.471 13.86525,13.471 C14.461375,13.471 14.9540556,13.2332361 15.1839028,12.8350278 C15.3572778,12.5341944 15.3538472,12.1832222 15.1741389,11.8718333 C14.7682778,11.1690972 13.5433056,10.7822361 11.7248472,10.7822361 C11.5939583,10.7825 11.4588472,10.7843472 11.3189861,10.7885694 Z M4.63943056,14.6761806 C4.49508333,14.7703889 4.34677778,14.8265972 4.24227778,14.8265972 C4.22248611,14.8265972 4.20902778,14.8244861 4.201375,14.8226389 C4.18316667,14.7305417 4.24861111,14.3323333 4.89381944,13.7019028 C5.19676389,13.4058194 5.57993056,13.1355972 6.03355556,12.8965139 C5.46118056,13.8174861 4.94606944,14.4758889 4.63943056,14.6761806 Z M8.45183333,4.96638889 C8.519125,4.76029167 8.60251389,4.66713889 8.6545,4.64972222 C8.65581944,4.64945833 8.656875,4.64893056 8.65793056,4.64866667 C8.70806944,4.70513889 8.92129167,5.027875 8.82576389,6.34573611 C8.80913889,6.57558333 8.75319444,6.866125 8.65898611,7.21129167 C8.35076389,6.41751389 8.26605556,5.53559722 8.45183333,4.96638889 Z M10.1014028,10.8672083 C9.61004167,10.9144444 8.86165278,11.0118194 8.02670833,11.2094722 C8.3505,10.5629444 8.65027778,9.90770833 8.90070833,9.3005 C8.98752778,9.40922222 9.07645833,9.52084722 9.16670833,9.63511111 C9.46886111,10.0159028 9.80822222,10.4439306 10.1599861,10.8619306 L10.1014028,10.8672083 Z M14.3735,12.3339028 C14.3872222,12.3576528 14.3869583,12.3671528 14.3835278,12.3734861 C14.3447361,12.4407778 14.16925,12.5476528 13.8639306,12.5476528 C13.7786944,12.5476528 13.6879167,12.5389444 13.5942361,12.5215278 C13.2131806,12.4510694 12.7687917,12.1877083 12.2391667,11.7179861 C13.6763056,11.7865972 14.257125,12.1330833 14.3735,12.3339028 Z" id="Shape"></path>
                        <path d="M13.27625,0 L1.32736111,0 C0.595069444,0 0,0.593486111 0,1.327625 L0,22.422375 C0,23.1557222 0.595069444,23.75 1.32736111,23.75 L17.259125,23.75 C17.993,23.75 18.5864861,23.1557222 18.5864861,22.422375 L18.5864861,5.3105 L13.27625,0 Z M13.27625,1.87704167 L16.7097083,5.3105 L13.27625,5.3105 L13.27625,1.87704167 Z M17.2593889,22.422375 L1.32736111,22.422375 L1.32736111,1.327625 L11.948625,1.327625 L11.948625,5.3105 C11.948625,6.04384722 12.542375,6.638125 13.2759861,6.638125 L17.259125,6.638125 L17.259125,22.422375 L17.2593889,22.422375 Z" id="Shape"></path>
                        <path d="M7.09993056,16.9825694 C6.99147222,16.8867778 6.861375,16.8171111 6.71359722,16.7762083 C6.56766667,16.7345139 6.35866667,16.7134028 6.09240278,16.7134028 L5.20863889,16.7134028 C5.04054167,16.7134028 4.913875,16.7519306 4.83180556,16.8287222 C4.74894444,16.9063056 4.70645833,17.0319167 4.70645833,17.2015972 L4.70645833,19.8225417 C4.70645833,19.9750694 4.74419444,20.0938194 4.81861111,20.1761528 C4.89434722,20.2605972 4.99515278,20.3036111 5.118125,20.3036111 C5.23581944,20.3036111 5.33504167,20.2605972 5.412625,20.175625 C5.488625,20.0922361 5.52741667,19.9719028 5.52741667,19.8180556 L5.52741667,18.921625 L6.09240278,18.921625 C6.52861111,18.921625 6.86375,18.8263611 7.08779167,18.6382083 C7.31579167,18.4476806 7.43163889,18.1658472 7.43163889,17.8003611 C7.43163889,17.6301528 7.40366667,17.4744583 7.34798611,17.3372361 C7.29204167,17.1981667 7.20865278,17.0791528 7.09993056,16.9825694 Z M6.528875,18.0785 C6.47952778,18.145 6.40906944,18.1917083 6.31301389,18.2217917 C6.21088889,18.2534583 6.08079167,18.2698194 5.925625,18.2698194 L5.52768056,18.2698194 L5.52768056,17.3625694 L5.925625,17.3625694 C6.28425,17.3625694 6.42965278,17.4340833 6.48744444,17.4924028 C6.5645,17.5747361 6.60197222,17.6800278 6.60197222,17.8138194 C6.60197222,17.924125 6.57743056,18.0130556 6.528875,18.0785 Z" id="Shape"></path>
                        <path d="M10.3645,17.0379861 C10.2212083,16.9126389 10.0591806,16.8258194 9.88290278,16.7801667 C9.711375,16.7358333 9.50343056,16.7131389 9.26566667,16.7131389 L8.36818056,16.7131389 C8.20219444,16.7131389 8.07816667,16.7529861 7.99926389,16.8321528 C7.92036111,16.9113194 7.88025,17.0353472 7.88025,17.2010694 L7.88025,19.6942917 C7.88025,19.8111944 7.89054167,19.904875 7.91165278,19.9800833 C7.93566667,20.0655833 7.98738889,20.1323472 8.06523611,20.1785278 C8.13938889,20.2233889 8.24336111,20.2450278 8.38216667,20.2450278 L9.27965278,20.2450278 C9.43851389,20.2450278 9.58365278,20.2347361 9.71111111,20.2141528 C9.84094444,20.1930417 9.96418056,20.1560972 10.077125,20.1046389 C10.191125,20.0526528 10.2972083,19.9824583 10.3935278,19.8959028 C10.514125,19.7850694 10.6146667,19.6576111 10.69225,19.5164306 C10.7690417,19.3757778 10.8268333,19.216125 10.86325,19.0424861 C10.8996667,18.8704306 10.9181389,18.6775278 10.9181389,18.4698472 C10.917875,17.8344028 10.7313056,17.3525417 10.3645,17.0379861 Z M9.76468056,19.42275 C9.72008333,19.4615417 9.66651389,19.4926806 9.60529167,19.5145833 C9.54116667,19.5372778 9.47888889,19.5517917 9.41951389,19.5573333 C9.35697222,19.5631389 9.26856944,19.5663056 9.15668056,19.5663056 L8.70068056,19.5663056 L8.70068056,17.3902778 L9.08938889,17.3902778 C9.29284722,17.3902778 9.46727778,17.4124444 9.60819444,17.4559861 C9.739875,17.4960972 9.85334722,17.5934722 9.94544444,17.746 C10.0399167,17.9019583 10.0879444,18.1439444 10.0879444,18.465625 C10.0879444,18.91925 9.97948611,19.2409306 9.76468056,19.42275 Z" id="Shape"></path>
                        <path d="M13.4889444,16.7134028 L11.8655,16.7134028 C11.7573056,16.7134028 11.6696944,16.7295 11.5979167,16.7624861 C11.521125,16.7973194 11.4638611,16.8540556 11.4274444,16.931375 C11.3936667,17.0036806 11.3773056,17.0920833 11.3773056,17.2015972 L11.3773056,19.8177917 C11.3773056,19.9753333 11.4158333,20.0964583 11.4910417,20.1777361 C11.5678333,20.261125 11.6681111,20.3036111 11.7889722,20.3036111 C11.9074583,20.3036111 12.0069444,20.2619167 12.0845278,20.1793194 C12.16,20.0977778 12.1982639,19.976125 12.1982639,19.8177917 L12.1982639,18.7635556 L13.2664861,18.7635556 C13.3860278,18.7635556 13.4797083,18.7347917 13.5443611,18.6775278 C13.6116528,18.6181528 13.6456944,18.5384583 13.6456944,18.4402917 C13.6456944,18.3423889 13.6124444,18.2624306 13.5464722,18.2027917 C13.4823472,18.1442083 13.3881389,18.1146528 13.2664861,18.1146528 L12.1982639,18.1146528 L12.1982639,17.3768194 L13.4892083,17.3768194 C13.6156111,17.3768194 13.7129861,17.3464722 13.7786944,17.2863056 C13.8459861,17.2250833 13.8800278,17.1435417 13.8800278,17.0440556 C13.8800278,16.9466806 13.8459861,16.8659306 13.7784306,16.8036528 C13.7119306,16.7434861 13.6148194,16.7134028 13.4889444,16.7134028 Z" id="Path"></path>
                    </g>
                </g>
            </g>
        </g>
    </g>
</svg>