<?xml version="1.0" encoding="UTF-8"?>
<svg width="24px" height="24px" viewBox="0 0 24 24" version="1.1" xmlns="http://www.w3.org/2000/svg" xmlns:xlink="http://www.w3.org/1999/xlink">
    <title>print-24px (1)</title>
    <g id="Design" stroke="none" stroke-width="1" fill="none" fill-rule="evenodd">
        <g id="MEET-Dashboard" transform="translate(-1161.000000, -754.000000)">
            <g id="Group-4" transform="translate(146.000000, 743.000000)">
                <g id="print-24px-(1)" transform="translate(1015.000000, 11.000000)">
                    <polygon id="Path" points="0 0 24 0 24 24 0 24"></polygon>
                    <path d="M19,8 L18,8 L18,3 L6,3 L6,8 L5,8 C3.34,8 2,9.34 2,11 L2,17 L6,17 L6,21 L18,21 L18,17 L22,17 L22,11 C22,9.34 20.66,8 19,8 Z M8,5 L16,5 L16,8 L8,8 L8,5 Z M16,17 L16,19 L8,19 L8,15 L16,15 L16,17 Z M18,15 L18,13 L6,13 L6,15 L4,15 L4,11 C4,10.45 4.45,10 5,10 L19,10 C19.55,10 20,10.45 20,11 L20,15 L18,15 Z" id="Shape" fill="#4B90E2" fill-rule="nonzero"></path>
                    <circle id="Oval" fill="#4B90E2" fill-rule="nonzero" cx="18" cy="11.5" r="1"></circle>
                </g>
            </g>
        </g>
    </g>
</svg>