<?xml version="1.0" standalone="no"?>
<!DOCTYPE svg PUBLIC "-//W3C//DTD SVG 20010904//EN"
 "http://www.w3.org/TR/2001/REC-SVG-20010904/DTD/svg10.dtd">
<svg version="1.0" xmlns="http://www.w3.org/2000/svg"
 width="32" height="32" viewBox="0 0 32 32"
 preserveAspectRatio="xMidYMid meet">

<g transform="translate(0.000000,32.000000) scale(0.100000,-0.100000)"
fill="#000000" stroke="none">
<path d="M122 310 c-27 -11 -55 -71 -45 -97 21 -60 87 -81 135 -43 32 24 39
59 22 99 -18 44 -64 60 -112 41z m80 -37 c18 -16 25 -63 10 -63 -4 0 -26 18
-47 40 l-39 40 29 0 c15 0 37 -7 47 -17z m-48 -52 c31 -32 35 -39 21 -45 -17
-6 -55 9 -67 28 -10 15 -10 56 0 56 4 0 25 -17 46 -39z"/>
<path d="M62 118 c-43 -21 -57 -44 -50 -89 3 -24 3 -24 148 -24 l145 0 3 37
c3 41 -13 61 -66 84 -30 12 -30 12 -42 -32 -15 -51 -33 -59 -28 -11 2 23 -1
32 -12 32 -11 0 -14 -9 -12 -32 5 -47 -12 -41 -29 11 l-14 44 -43 -20z"/>
</g>
</svg>
