<?xml version="1.0" encoding="UTF-8"?>
<svg width="171px" height="40px" viewBox="0 0 171 40" version="1.1" xmlns="http://www.w3.org/2000/svg" xmlns:xlink="http://www.w3.org/1999/xlink">
    <title>Shape</title>
    <g id="Design" stroke="none" stroke-width="1" fill="none" fill-rule="evenodd">
        <g id="View--Performance-Assessment" transform="translate(-24.000000, -153.000000)" fill="#FFFFFF" fill-rule="nonzero">
            <path d="M122.594878,153.003015 L129.487474,154.46837 C134.414203,155.514622 139.518824,157.908638 139.518824,165.992212 C139.518824,174.075786 134.411187,174.323027 129.487474,173.276775 L122.594878,171.81142 L122.594878,153.003015 L122.594878,153.003015 Z M129.487474,169.007346 C132.577986,169.664645 134.872503,170.047567 134.872503,165.003248 C134.872503,159.958929 132.55085,159.358917 129.487474,158.707648 L127.241199,158.231257 L127.241199,168.527939 L129.487474,169.004331 L129.487474,169.007346 Z M153.867846,159.651385 L153.867846,163.893679 L149.758219,163.01929 L149.758219,173.315972 L153.867846,174.190361 L153.867846,178.45979 L141.026391,175.731094 L141.026391,171.461665 L145.136019,172.336054 L145.136019,162.039371 L141.026391,161.164983 L141.026391,156.922689 L153.867846,159.651385 Z M164.740419,161.590116 C170.586764,162.832352 174.159697,167.807322 174.159697,173.358184 C174.159697,178.909045 170.586764,182.38851 164.740419,181.146275 C158.866938,179.898009 155.269884,174.917008 155.269884,169.342026 C155.269884,163.767043 158.869953,160.341851 164.740419,161.590116 L164.740419,161.590116 Z M164.740419,176.744179 C167.855052,177.407509 169.38674,175.758231 169.38674,172.342084 C169.38674,168.925937 167.830931,166.649511 164.740419,165.992212 C161.625786,165.328882 160.066962,166.97213 160.066962,170.361141 C160.066962,173.750151 161.625786,176.08085 164.740419,176.744179 Z M176.484366,164.460524 L185.240314,166.320861 L190.293679,184.655891 L190.293679,167.394249 L194.94,168.380198 L194.94,187.188603 L186.184051,185.328265 L181.130687,166.993236 L181.130687,184.254878 L176.484366,183.268929 L176.484366,164.460524 Z M29.7709662,172.061676 L38.2706286,170.255611 L44.0144587,187.842887 L39.0877299,188.889139 L37.4022701,183.564412 L30.5609313,185.017707 L28.8754715,191.05702 L24,192.094226 L29.7679511,172.058661 L29.7709662,172.061676 Z M36.1268685,179.593481 L33.9831083,172.872747 L31.8393481,180.504051 L36.1268685,179.593481 Z M53.4307218,186.2117 C47.0748196,187.56248 44.3943655,185.304144 44.3943655,180.422643 L49.1914435,179.403527 C49.1914435,182.071921 50.1864377,182.84681 53.5302212,182.135239 C55.800617,181.652817 56.7714901,180.965367 56.7714901,179.79248 C56.7714901,179.126135 56.2619325,178.728137 55.2398021,178.67688 L49.2155646,178.303003 C46.1009313,178.085914 45.1300582,176.397439 45.1300582,174.021513 C45.1300582,170.367171 47.7351339,167.86461 52.4568335,166.86057 C58.0740279,165.666577 60.8539814,167.849534 60.8539814,171.932026 L56.0810244,172.945111 C56.0810244,170.918941 54.9835157,170.297823 52.5322119,170.819441 C50.822631,171.184272 49.9271362,171.826496 49.9271362,172.893853 C49.9271362,173.427532 50.2075437,173.819499 51.3321886,173.900908 L57.1785332,174.1783 C60.1635157,174.316997 61.544447,175.812503 61.544447,178.55929 C61.544447,182.135239 59.1956577,184.981525 53.4277066,186.208685 L53.4307218,186.2117 Z M62.9012573,174.407451 C62.9012573,168.856589 66.5525844,163.866542 72.4471711,162.612247 C77.6030501,161.517753 81.0222119,163.697695 81.5589057,168.30482 L76.7859488,169.317905 C76.4030268,167.373143 74.7447031,166.525891 72.4712922,167.008312 C69.6883236,167.599278 67.6983353,169.676705 67.6983353,173.38532 C67.6983353,177.093935 69.6883236,178.351246 72.4712922,177.760279 C74.741688,177.277858 76.4030268,175.697928 76.7859488,173.587334 L81.5589057,172.574249 C81.0222119,177.43766 77.6030501,181.070896 72.4471711,182.168405 C66.5495693,183.422701 62.9012573,179.982433 62.9012573,174.407451 L62.9012573,174.407451 Z M83.8383469,160.564971 L98.1572177,157.522701 L98.1572177,161.764994 L88.5087893,163.815285 L88.5087893,166.963085 L96.8818161,165.184156 L96.8818161,169.185239 L88.5087893,170.964168 L88.5087893,174.139104 L98.1572177,172.088813 L98.1572177,176.331106 L83.8383469,179.373376 L83.8383469,160.564971 L83.8383469,160.564971 Z M100.970338,156.922689 L109.726286,155.062352 L114.782666,171.250605 L114.782666,153.988964 L119.428987,153 L119.428987,171.808405 L110.673038,173.668743 L105.619674,157.480489 L105.619674,174.74213 L100.973353,175.728079 L100.973353,156.919674 L100.970338,156.922689 Z" id="Shape"></path>
        </g>
    </g>
</svg>