<?xml version="1.0" encoding="UTF-8"?><svg id="AW" xmlns="http://www.w3.org/2000/svg" viewBox="0 0 702.65 265.37"><path d="M394.85,67.86l22.86,4.86c16.34,3.47,33.27,11.41,33.27,38.22s-16.94,27.63-33.27,24.16l-22.86-4.86v-62.38Zm22.86,53.08c10.25,2.18,17.86,3.45,17.86-13.28s-7.7-18.72-17.86-20.88l-7.45-1.58v34.15l7.45,1.58Zm80.86-31.03v14.07l-13.63-2.9v34.15l13.63,2.9v14.16l-42.59-9.05v-14.16l13.63,2.9v-34.15l-13.63-2.9v-14.07l42.59,9.05Zm36.06,6.43c19.39,4.12,31.24,20.62,31.24,39.03s-11.85,29.95-31.24,25.83c-19.48-4.14-31.41-20.66-31.41-39.15s11.94-29.85,31.41-25.71Zm0,50.26c10.33,2.2,15.41-3.27,15.41-14.6s-5.16-18.88-15.41-21.06c-10.33-2.2-15.5,3.25-15.5,14.49s5.17,18.97,15.5,21.17Zm38.95-40.74l29.04,6.17,16.76,60.81v-57.25l15.41,3.27v62.38l-29.04-6.17-16.76-60.81v57.25l-15.41-3.27v-62.38Zm-486.59,25.21l28.19-5.99,19.05,58.33-16.34,3.47-5.59-17.66-22.69,4.82-5.59,20.03-16.17,3.44,19.13-66.45Zm21.08,24.98l-7.11-22.29-7.11,25.31,14.22-3.02Zm57.39,21.95c-21.08,4.48-29.97-3.01-29.97-19.2l15.91-3.38c0,8.85,3.3,11.42,14.39,9.06,7.53-1.6,10.75-3.88,10.75-7.77,0-2.21-1.69-3.53-5.08-3.7l-19.98-1.24c-10.33-.72-13.55-6.32-13.55-14.2,0-12.12,8.64-20.42,24.3-23.75,18.63-3.96,27.85,3.28,27.85,16.82l-15.83,3.36c0-6.72-3.64-8.78-11.77-7.05-5.67,1.21-8.64,3.34-8.64,6.88,0,1.77,.93,3.07,4.66,3.34l19.39,.92c9.9,.46,14.48,5.42,14.48,14.53,0,11.86-7.79,21.3-26.92,25.37Zm31.41-39.15c0-18.41,12.11-34.96,31.66-39.12,17.1-3.63,28.44,3.6,30.22,18.88l-15.83,3.36c-1.27-6.45-6.77-9.26-14.31-7.66-9.23,1.96-15.83,8.85-15.83,21.15s6.6,16.47,15.83,14.51c7.53-1.6,13.04-6.84,14.31-13.84l15.83-3.36c-1.78,16.13-13.12,28.18-30.22,31.82-19.56,4.16-31.66-7.25-31.66-25.74Zm69.44-45.91l47.49-10.09v14.07l-32,6.8v10.44l27.77-5.9v13.27l-27.77,5.9v10.53l32-6.8v14.07l-47.49,10.09v-62.38Zm56.82-12.08l29.04-6.17,16.77,53.69v-57.25l15.41-3.28v62.38l-29.04,6.17-16.76-53.69v57.25l-15.41,3.27v-62.38Z"/></svg>